<svg xmlns="http://www.w3.org/2000/svg" xmlns:xlink="http://www.w3.org/1999/xlink" fill="#ffffff" fill-rule="evenodd" height="100%" viewBox="0 0 24 24" width="100%" fit="" preserveAspectRatio="xMidYMid meet" focusable="false"><path d="M7 3h2v2H7zM3 7h2v2H3z" opacity=".8"></path><path d="M19 7h2v2h-2z" opacity=".6"></path><path d="M3 11h2v2H3z" opacity=".8"></path><path d="M19 11h2v2h-2z" opacity=".6"></path><path d="M3 15h2v2H3z" opacity=".8"></path><path d="M19 15h2v2h-2zM7 19h2v2H7z" opacity=".6"></path><path d="M11 3h2v2h-2z" opacity=".8"></path><path d="M11 19h2v2h-2z" opacity=".6"></path><path d="M15 3h2v2h-2z" opacity=".8"></path><path d="M15 19h2v2h-2z" opacity=".6"></path><path d="M5 19h14V5H5v14zm12-2H7V7h10v10z"></path><path d="M15 9H9v6l3-3z"></path><path d="M12 12l-3 3h6z" opacity=".8"></path><path d="M15 15V9l-3 3z" opacity=".6"></path></svg>