<svg xmlns="http://www.w3.org/2000/svg" xmlns:xlink="http://www.w3.org/1999/xlink" fill="none"  fill-rule="evenodd" height="100%" viewBox="0 0 32 32" width="100%" fit="" preserveAspectRatio="xMidYMid meet" focusable="false"><path d="M20.285 17.696l7.285 4.206v1.586l-7.91-4.565z" fill="#b3b3b3"></path><path d="M12.777 18.64L4.43 23.457l-.514-1.29 8.13-4.693z" fill="#e6e6e6"></path><path d="M15.286 2.062h1.375v9.243h-1.37z" fill="#f2f2f2"></path><path d="M16.013 0L2 8v16l14.013 8L30 24V8L16.013 0zM27 22.222l-10.987 6.22L5 22.222V9.78l11.013-6.22L27 9.778V22.22z" fill="#f2f2f2"></path><path d="M15.974 15.207l6.36-3.674-6.36-3.673-6.362 3.673z" fill="#f2f2f2"></path><path d="M15.23 16.48l-6.173-3.67v7.346l6.17 3.673z" fill="#e6e6e6"></path><path d="M16.77 16.48v7.347l6.172-3.673v-7.346z" fill="#b3b3b3"></path></svg>